<svg xmlns="http://www.w3.org/2000/svg" viewBox="0 0 3000 2250" width="3000" height="2250"><g transform="translate(2317.5 1920.0) rotate(0.0 249.375 54.375) translate(108.75 0.0) scale(5.0162430728071845 4.778749395790306)"><svg width="77.747" height="22.757" viewBox="21.68 0 77.747 22.757"><path d="M47.55 22.757h-6.08a1.001 1.001 0 0 1-.044-.087c-.015-.02-.015-.047-.029-.067-.442-1.414-.839-2.575-1.016-4.056v-.053c-.044-.38-.059-.787-.059-1.221 0-.033 0-.06-.015-.087 0-.507.015-1.054.074-1.661.044-.547.088-1.121.162-1.701.133-.934.324-1.901.589-2.896a18.798 18.798 0 0 1 1.531-3.936c0-.033.015-.067.045-.093 1.045-2.022 2.561-4.03 4.725-5.898a22.817 22.817 0 0 0-1.296 3.269.131.131 0 0 0-.029.067 24.12 24.12 0 0 0-.986 4.724c-.044.42-.074.834-.088 1.228-.133 2.649.221 4.61.398 5.444v.007c.029.16.059.28.074.354-.869 1.501-.029 3.523.883 5.01.339.554.677 1.034.957 1.394v.007c.086.092.145.179.204.252z" fill="#93c3ff"/><path d="M42.117 21.823c-.059.32-.309.607-.692.847a.76.76 0 0 1-.147.087H34.3c-.795-.34-1.266-.841-1.163-1.394.427-1.408.677-2.769.78-4.083.074-.827.088-1.635.059-2.415a19.078 19.078 0 0 0-.574-3.876v-.007C31.945 5.077 28.088.987 26.66 0c1.266.547 4.829 2.956 8.229 6.352 2.164 2.162 4.269 4.73 5.653 7.472 1.325 2.569 2.032 5.297 1.575 7.999z" fill="#93c3ff"/><path d="M85.059 4.804c-.971 1.141-2.885 3.036-4.519 10.214v.013c-.486 2.088-.942 4.63-1.325 7.726h-7.257a16.992 16.992 0 0 1 1.266-4.343v-.013c3.017-7.032 9.995-12.336 11.835-13.597zm-16.841-.127c-.824 1.161-2.488 3.089-3.239 10.208-.221 2.122-.368 4.71-.383 7.873h-7.214c.059-2.008.53-3.936 1.251-5.738 2.504-6.339 8.01-11.129 9.585-12.343z" fill="#bedbff"/><path d="M99.427 11.415c-1.457.701-7.552 4.537-8.994 11.008-.015.12-.088.233-.206.334H85.56c-.221-.18-.324-.407-.25-.64.235-.721.618-1.414 1.089-2.082 3.298-4.777 11.512-8.173 13.028-8.62zM60.534 22.717l-.53.04h-6.757c-1.222-3.683-.971-7.199-.147-10.181 1.178-4.283 3.504-7.459 4.343-8.453-.441 1.348-1.575 3.703 1.193 12.896.485 1.662 1.117 3.55 1.898 5.698zm8.95-6.878c-.368 1.801-.53 3.843-.368 6.151.029.28-.206.554-.589.767H62.27c-.25-.153-.383-.34-.368-.54.103-2.435 1.355-4.984 3.077-7.332 3.371-4.617 8.568-8.493 10.614-9.414-1.28 1.001-4.872 4.276-6.109 10.368zm19.211-6.792c-1.192.834-4.769 3.689-6.227 9.207a19.55 19.55 0 0 0-.618 4.063c0 .153-.103.307-.28.44h-5.403c-.147-.12-.221-.254-.192-.394.412-2.495 2.311-5.097 4.564-7.332v-.013c3.019-3.002 6.64-5.357 8.156-5.971z" fill="#93c3ff"/><g fill="#bedbff"><path d="M73.547 21.99c.088.294-.103.56-.471.767h-5.123c-.25-.167-.398-.36-.427-.581-.25-2.255.618-4.417 1.958-6.338 2.767-3.963 7.537-6.879 8.7-7.399-1.104.801-4.725 4.417-4.961 9.961v.013a13.906 13.906 0 0 0 .324 3.577zm-18.799.367c-.015.147-.103.28-.265.4h-4.976c.544-.914 2.149-3.923.648-5.804.015-.2.044-.814-.029-1.741-.176-2.248-.927-6.358-4.019-10.875-.044-.06-.074-.113-.118-.173.044.033.103.073.147.107 3.577 2.549 5.683 5.517 6.963 8.306a22.467 22.467 0 0 1 1.339 3.716c.766 2.741.531 4.143.31 6.064z"/><path d="M52.143 22.237c-.044.194-.177.374-.397.52h-4.99c-.427-.227-.663-.534-.619-.834.088-.28.177-.554.251-.821.25-.921.397-1.801.471-2.642.309-3.376-.677-6.138-1.825-8.173-.854-1.528-1.796-2.642-2.37-3.296a5.42 5.42 0 0 1-.368-.4c.103.073.251.173.413.307.574.434 1.443 1.188 2.414 2.162 1.619 1.601 3.562 3.796 5.005 6.151 1.411 2.322 2.353 4.804 2.015 7.026zM92.626 9.774c-1.237.867-5.167 4.023-6.227 10.261a18.65 18.65 0 0 0-.265 2.328c0 .14-.088.274-.236.394h-5.197c-.118-.107-.176-.227-.147-.354.235-1.381.942-2.795 1.913-4.15 2.931-4.109 8.275-7.725 10.159-8.479z"/><path d="M47.432 22.264a.704.704 0 0 1-.088.233v.007a.785.785 0 0 1-.221.254h-6.581c-.044-.013-.073-.027-.073-.047-.354-.22-.545-.494-.515-.781.177-.714.294-1.414.353-2.095.015-.007 0-.007 0-.013.059-.434.074-.854.074-1.274v-.053c0-.414-.029-.821-.059-1.221 0-.033 0-.06-.015-.087-.618-6.225-5.388-10.675-6.934-11.602.339.127.854.387 1.516.767 1.604.927 3.989 2.542 6.242 4.577 1.604 1.428 3.135 3.062 4.298 4.804v.007c.589.887 1.089 1.795 1.428 2.722.487 1.253.707 2.534.575 3.802zm-11.571-.768c.074.427-.192.827-.721 1.134a1.857 1.857 0 0 1-.235.127h-6.742v-.007c-.603-.274-1.001-.64-1.089-1.014a21.707 21.707 0 0 0-.442-3.316C24.408 7.933 15.104 1.688 13.028.167c2.532 1.147 15.678 9.167 20.89 17.113.368.54.692 1.087.957 1.628v.007s.015.007 0 .013c.015 0 .015.007 0 .02.456.854.794 1.714.986 2.548z"/></g><path d="M28.338 22.364c.029.14-.029.267-.176.387v.007h-5.417c-.177-.133-.28-.287-.28-.44a18.879 18.879 0 0 0-.722-4.437c-1.516-5.271-4.961-8.019-6.124-8.833 2.046.827 7.994 4.864 11.011 9.374.869 1.293 1.488 2.634 1.708 3.942zm-8.14-.22c0 .207-.118.394-.324.554v.007l-.073.053h-5.079c-.339-.2-.559-.447-.559-.694a14.12 14.12 0 0 0-.309-5.684C12.5 11.129 8.525 7.84 7.509 6.926c1.678.914 10.584 7.532 12.381 13.423v.007c.19.607.293 1.2.308 1.788z" fill="#93c3ff"/><path d="M12.425 22.757H8.583a.349.349 0 0 1-.088-.133c-1.516-5.718-7.287-8.9-8.494-9.621 1.163.434 6.89 3.303 10.275 6.485 1.001.941 1.811 1.908 2.223 2.849a.404.404 0 0 1-.074.42zm28.382-.613c0 .207-.133.4-.339.567-.015.013-.044.033-.059.047H35.33a.58.58 0 0 1-.191-.127c-.235-.173-.368-.367-.368-.567.162-1.094.191-2.135.103-3.116.015-.013.015-.02 0-.02.015-.007 0-.013 0-.013v-.007a13.872 13.872 0 0 0-.898-4.043c-1.649-4.37-4.961-7.119-5.859-7.939.751.407 2.93 1.948 5.285 4.056v.007c2.767 2.475 5.756 5.731 6.904 8.833 0 .007.015.007 0 .013.295.781.472 1.561.501 2.309z" fill="#bedbff"/><path d="M16.296 22.137c0 .233-.147.447-.398.621h-5.123c-.324-.187-.515-.42-.515-.681.088-.894.088-1.761.014-2.589C9.657 13.25 4.637 8.88 3.18 8.046c1.443.52 7.287 3.97 10.673 8.333 1.398 1.815 2.385 3.783 2.443 5.758zm7.523.38c0 .087-.044.167-.118.24h-3.769c-.029-.013-.044-.033-.059-.053v-.007a.403.403 0 0 1-.118-.26 10.2 10.2 0 0 0 .133-2.082v-.007c-.192-4.543-3.592-7.412-4.343-8.126.795.447 4.019 2.862 6.198 5.658 1.193 1.521 2.061 3.149 2.076 4.637z" fill="#bedbff"/></svg></g><g transform="translate(401.25 1740.0) rotate(0.0 240.0 52.5) scale(4.827662506160298 4.6139649338665025)"><svg width="99.427" height="22.757" viewBox="0 0 99.427 22.757"><path d="M47.55 22.757h-6.08a1.001 1.001 0 0 1-.044-.087c-.015-.02-.015-.047-.029-.067-.442-1.414-.839-2.575-1.016-4.056v-.053c-.044-.38-.059-.787-.059-1.221 0-.033 0-.06-.015-.087 0-.507.015-1.054.074-1.661.044-.547.088-1.121.162-1.701.133-.934.324-1.901.589-2.896a18.798 18.798 0 0 1 1.531-3.936c0-.033.015-.067.045-.093 1.045-2.022 2.561-4.03 4.725-5.898a22.817 22.817 0 0 0-1.296 3.269.131.131 0 0 0-.029.067 24.12 24.12 0 0 0-.986 4.724c-.044.42-.074.834-.088 1.228-.133 2.649.221 4.61.398 5.444v.007c.029.16.059.28.074.354-.869 1.501-.029 3.523.883 5.01.339.554.677 1.034.957 1.394v.007c.086.092.145.179.204.252z" fill="#93c3ff"/><path d="M42.117 21.823c-.059.32-.309.607-.692.847a.76.76 0 0 1-.147.087H34.3c-.795-.34-1.266-.841-1.163-1.394.427-1.408.677-2.769.78-4.083.074-.827.088-1.635.059-2.415a19.078 19.078 0 0 0-.574-3.876v-.007C31.945 5.077 28.088.987 26.66 0c1.266.547 4.829 2.956 8.229 6.352 2.164 2.162 4.269 4.73 5.653 7.472 1.325 2.569 2.032 5.297 1.575 7.999z" fill="#93c3ff"/><path d="M85.059 4.804c-.971 1.141-2.885 3.036-4.519 10.214v.013c-.486 2.088-.942 4.63-1.325 7.726h-7.257a16.992 16.992 0 0 1 1.266-4.343v-.013c3.017-7.032 9.995-12.336 11.835-13.597zm-16.841-.127c-.824 1.161-2.488 3.089-3.239 10.208-.221 2.122-.368 4.71-.383 7.873h-7.214c.059-2.008.53-3.936 1.251-5.738 2.504-6.339 8.01-11.129 9.585-12.343z" fill="#bedbff"/><path d="M99.427 11.415c-1.457.701-7.552 4.537-8.994 11.008-.015.12-.088.233-.206.334H85.56c-.221-.18-.324-.407-.25-.64.235-.721.618-1.414 1.089-2.082 3.298-4.777 11.512-8.173 13.028-8.62zM60.534 22.717l-.53.04h-6.757c-1.222-3.683-.971-7.199-.147-10.181 1.178-4.283 3.504-7.459 4.343-8.453-.441 1.348-1.575 3.703 1.193 12.896.485 1.662 1.117 3.55 1.898 5.698zm8.95-6.878c-.368 1.801-.53 3.843-.368 6.151.029.28-.206.554-.589.767H62.27c-.25-.153-.383-.34-.368-.54.103-2.435 1.355-4.984 3.077-7.332 3.371-4.617 8.568-8.493 10.614-9.414-1.28 1.001-4.872 4.276-6.109 10.368zm19.211-6.792c-1.192.834-4.769 3.689-6.227 9.207a19.55 19.55 0 0 0-.618 4.063c0 .153-.103.307-.28.44h-5.403c-.147-.12-.221-.254-.192-.394.412-2.495 2.311-5.097 4.564-7.332v-.013c3.019-3.002 6.64-5.357 8.156-5.971z" fill="#93c3ff"/><g fill="#bedbff"><path d="M73.547 21.99c.088.294-.103.56-.471.767h-5.123c-.25-.167-.398-.36-.427-.581-.25-2.255.618-4.417 1.958-6.338 2.767-3.963 7.537-6.879 8.7-7.399-1.104.801-4.725 4.417-4.961 9.961v.013a13.906 13.906 0 0 0 .324 3.577zm-18.799.367c-.015.147-.103.28-.265.4h-4.976c.544-.914 2.149-3.923.648-5.804.015-.2.044-.814-.029-1.741-.176-2.248-.927-6.358-4.019-10.875-.044-.06-.074-.113-.118-.173.044.033.103.073.147.107 3.577 2.549 5.683 5.517 6.963 8.306a22.467 22.467 0 0 1 1.339 3.716c.766 2.741.531 4.143.31 6.064z"/><path d="M52.143 22.237c-.044.194-.177.374-.397.52h-4.99c-.427-.227-.663-.534-.619-.834.088-.28.177-.554.251-.821.25-.921.397-1.801.471-2.642.309-3.376-.677-6.138-1.825-8.173-.854-1.528-1.796-2.642-2.37-3.296a5.42 5.42 0 0 1-.368-.4c.103.073.251.173.413.307.574.434 1.443 1.188 2.414 2.162 1.619 1.601 3.562 3.796 5.005 6.151 1.411 2.322 2.353 4.804 2.015 7.026zM92.626 9.774c-1.237.867-5.167 4.023-6.227 10.261a18.65 18.65 0 0 0-.265 2.328c0 .14-.088.274-.236.394h-5.197c-.118-.107-.176-.227-.147-.354.235-1.381.942-2.795 1.913-4.15 2.931-4.109 8.275-7.725 10.159-8.479z"/><path d="M47.432 22.264a.704.704 0 0 1-.088.233v.007a.785.785 0 0 1-.221.254h-6.581c-.044-.013-.073-.027-.073-.047-.354-.22-.545-.494-.515-.781.177-.714.294-1.414.353-2.095.015-.007 0-.007 0-.013.059-.434.074-.854.074-1.274v-.053c0-.414-.029-.821-.059-1.221 0-.033 0-.06-.015-.087-.618-6.225-5.388-10.675-6.934-11.602.339.127.854.387 1.516.767 1.604.927 3.989 2.542 6.242 4.577 1.604 1.428 3.135 3.062 4.298 4.804v.007c.589.887 1.089 1.795 1.428 2.722.487 1.253.707 2.534.575 3.802zm-11.571-.768c.074.427-.192.827-.721 1.134a1.857 1.857 0 0 1-.235.127h-6.742v-.007c-.603-.274-1.001-.64-1.089-1.014a21.707 21.707 0 0 0-.442-3.316C24.408 7.933 15.104 1.688 13.028.167c2.532 1.147 15.678 9.167 20.89 17.113.368.54.692 1.087.957 1.628v.007s.015.007 0 .013c.015 0 .015.007 0 .02.456.854.794 1.714.986 2.548z"/></g><path d="M28.338 22.364c.029.14-.029.267-.176.387v.007h-5.417c-.177-.133-.28-.287-.28-.44a18.879 18.879 0 0 0-.722-4.437c-1.516-5.271-4.961-8.019-6.124-8.833 2.046.827 7.994 4.864 11.011 9.374.869 1.293 1.488 2.634 1.708 3.942zm-8.14-.22c0 .207-.118.394-.324.554v.007l-.073.053h-5.079c-.339-.2-.559-.447-.559-.694a14.12 14.12 0 0 0-.309-5.684C12.5 11.129 8.525 7.84 7.509 6.926c1.678.914 10.584 7.532 12.381 13.423v.007c.19.607.293 1.2.308 1.788z" fill="#93c3ff"/><path d="M12.425 22.757H8.583a.349.349 0 0 1-.088-.133c-1.516-5.718-7.287-8.9-8.494-9.621 1.163.434 6.89 3.303 10.275 6.485 1.001.941 1.811 1.908 2.223 2.849a.404.404 0 0 1-.074.42zm28.382-.613c0 .207-.133.4-.339.567-.015.013-.044.033-.059.047H35.33a.58.58 0 0 1-.191-.127c-.235-.173-.368-.367-.368-.567.162-1.094.191-2.135.103-3.116.015-.013.015-.02 0-.02.015-.007 0-.013 0-.013v-.007a13.872 13.872 0 0 0-.898-4.043c-1.649-4.37-4.961-7.119-5.859-7.939.751.407 2.93 1.948 5.285 4.056v.007c2.767 2.475 5.756 5.731 6.904 8.833 0 .007.015.007 0 .013.295.781.472 1.561.501 2.309z" fill="#bedbff"/><path d="M16.296 22.137c0 .233-.147.447-.398.621h-5.123c-.324-.187-.515-.42-.515-.681.088-.894.088-1.761.014-2.589C9.657 13.25 4.637 8.88 3.18 8.046c1.443.52 7.287 3.97 10.673 8.333 1.398 1.815 2.385 3.783 2.443 5.758zm7.523.38c0 .087-.044.167-.118.24h-3.769c-.029-.013-.044-.033-.059-.053v-.007a.403.403 0 0 1-.118-.26 10.2 10.2 0 0 0 .133-2.082v-.007c-.192-4.543-3.592-7.412-4.343-8.126.795.447 4.019 2.862 6.198 5.658 1.193 1.521 2.061 3.149 2.076 4.637z" fill="#bedbff"/></svg></g><g transform="translate(1893.75 2025.0) rotate(0.0 350.625 30.0) scale(3.9294079411863594 3.9994667377682975)"><svg width="178.462" height="15.002" viewBox="0 0 178.462 15.002"><path d="M163.461 15.002H15.001C6.716 15.002 0 8.285 0 0h178.462c0 8.285-6.716 15.002-15.001 15.002z" fill="#e8e9ec"/></svg></g><g transform="translate(581.25 2025.0) rotate(0.0 350.625 30.0) scale(3.9294079411863594 3.9994667377682975)"><svg width="178.462" height="15.002" viewBox="0 0 178.462 15.002"><path d="M163.461 15.002H15.001C6.716 15.002 0 8.285 0 0h178.462c0 8.285-6.716 15.002-15.001 15.002z" fill="#e8e9ec"/></svg></g><g transform="translate(442.5 300.0) rotate(0.0 755.625 562.5) scale(3.9711632453567938 3.967008593422171)"><svg width="380.556" height="283.589" viewBox="0 0 380.556 283.589"><path d="m376.766 65.523-181.48 40.266v126.068h181.48z" fill="#e8e9ec"/><path d="M29.301 209.391h186.964v52.204H29.301z" fill="#e8e9ec"/><path d="M268.125 213.033H206.65V112.267l61.475-10.003z" fill="#fbfbfb"/><path d="M377.905 48.854 177.513 97.506l-8.25 17.079 207.165-47.546z" fill="#dddee3"/><path d="M234.677 148.86h3v65.375h-3z" fill="#e8e9ec"/><path d="M214.416 148.482h65.375v3h-65.375z" fill="#e8e9ec"/><path d="m380.556 50.56-227.072 52.115v-6.701l227.072-52.115z" fill="#d2d3da"/><path d="M311.191 9.183 8.199 78.722l-1.323 65 283.909-65.159z" fill="#dddee3"/><path d="M37.142 213.177H9.827V77.1l27.315 16.381z" fill="#e8e9ec"/><path d="M285.683 41.832h7.142v225.304h-7.142z" fill="#f8f8f9"/><path d="M3.061 74.482h9.183v145.462H3.061z" fill="#c6c8d0"/><path d="M311.191 9.183 0 80.603v-9.182L311.191 0z" fill="#bbbdc7"/><path d="M215.182 54.596 36.245 92.435v126.067h178.937z" fill="#d2d3da"/><path d="M41.539 116.046h168.312v69.063H41.539z" fill="#fbfbfb"/><path d="M95.891 110.722v82.666" fill="none"/><path d="M155.083 107.582h3v92.084h-3zm-64.878 0h3v92.084h-3zm284.281 124.954h6.07V44.28l-6.07 2.815z" fill="#d2d3da"/><path d="M308.533 98.913h43.706v29.137h-43.706zm0 72.843h43.706v29.137h-43.706z" fill="#fbfbfb"/><path d="M339.585 89.372h2v130.934h-2z" fill="#e8e9ec"/><g fill="#f3f4f6"><path d="M215.893 209.085h57.553v10.464h-57.553z"/><path d="M215.893 218.502h66.186v10.464h-66.186z"/><path d="M215.893 228.389h77.614v12.661h-77.614z"/><path d="M215.893 239.374h85.901v15.957h-85.901z"/><path d="M215.893 253.718H316.17v15.957H215.893z"/><path d="M215.893 267.632h113.304v15.957H215.893z"/></g><path d="M3.146 188.324h211.712v31.392H3.146z" fill="#bbbdc7"/></svg></g><g transform="translate(266.25 1271.25) rotate(0.0 219.375 271.875) scale(3.77741043985846 3.7511900327000287)"><svg width="116.151" height="144.954" viewBox="0 0 116.151 144.954"><path d="M106.836 92.287c-34.955 6.552-67.294 7.146-97.355 0L3.534 8.815c34.265 8.617 70.278 8.617 109.269 0z" fill="#bbbdc7"/><path d="M15.29 144.954h-4.418L0 0h5.436zm89.99 0h-4.419L110.715 0h5.436z" fill="#bbbdc7"/><g fill="#e8e9ec"><path d="M34.078 53.22c.158 2.272-.983 4.322-2.912 5.268-1.9.984-4.531 1.159-6.712.982-2.337-.24-4.589-1.37-6.301-3.171a.189.189 0 0 1-.045-.182.642.642 0 0 1 .102-.233l1.955-2.638a.47.47 0 0 1 .267-.158.532.532 0 0 1 .288.053 9.078 9.078 0 0 0 3.776 1.802 7.308 7.308 0 0 0 3.425-.229c1.172-.5 1.28-1.977-.011-2.624-1.141-.571-2.532-.442-3.727-.603-2.036-.274-5.005-1.386-6-3.514-1.035-2.213-.996-5.22.666-6.835 1.616-1.57 4.444-2.211 6.735-1.955 2.139.168 4.245.876 6.133 2.059a.959.959 0 0 1 .255.253.376.376 0 0 1 .018.277l-2.043 3.243a.418.418 0 0 1-.204.083.394.394 0 0 1-.185-.027l-.27-.136c-1.366-.689-6.655-2.452-6.51.435.074 1.528 2.02 1.452 3.002 1.556 1.155.164 2.3.448 3.415.847 2.376.766 4.47 2.462 4.843 5.061.014.129.028.258.04.386zm36.794 1.414-7.07-.019-.869-.052-.306-.052-.125-.104-.05-.13-.024-.13-.022-.26c.144-2.463.208-11.302.229-12.798l-.005-1.167c-.001-.191-.145-.344-.325-.344l-3.582-.01-1.048-.011c-.182 0-.33.157-.33.35l-.002 18.566c0 .173.139.313.309.313h13.079a.33.33 0 0 0 .325-.316l.118-3.513a.303.303 0 0 0-.302-.323zm-16.051-5.335c.066 2.735-.897 5.343-2.667 7.283l-.267.249-.314.248-.29.224-.435.296c-3.236 2.042-7.448 1.825-10.928.254-3.54-1.596-5.309-5.563-5.194-9.391.025-3.966 2.514-7.384 6.206-8.435a12.871 12.871 0 0 1 5.057-.474l.437.055.438.082.439.109c3.181.79 6.104 3.123 7.052 6.441.287 1 .443 2.029.466 3.059zm-6.095 3.283c.569-.872.867-1.91.855-2.982-.016-2.932-2.176-5.654-5.18-5.443l-.557.027c-4.151.879-5.467 6.635-1.955 9.402 2.034 1.684 4.952 1.42 6.55-.594.104-.131.201-.268.29-.41zm46.267-16.63h3.328c.184 0 .316.16.295.356L96.44 56.764a.362.362 0 0 1-.349.319h-3.147a.283.283 0 0 1-.284-.319l1.965-20.456c.02-.197.184-.356.368-.356zm-2.201 22.699h3.134c.173 0 .298.142.28.316l-.302 2.842a.354.354 0 0 1-.343.311h-3.104a.278.278 0 0 1-.281-.311l.273-2.842a.353.353 0 0 1 .343-.316zm-1.821-9.121c.012-.299.016-.596.023-.885a10.942 10.942 0 0 0-.261-2.744 6.633 6.633 0 0 0-.903-2.534 8.601 8.601 0 0 0-4.265-3.045c-.2-.059-.404-.099-.609-.14l-.656-.108-.405-.054-.813-.055-.635-.054h-.408l-1.03-.064c-1.873.094-2.673.029-4.54.006l-.842.029-.385.055s-.331.032-.437.054a.928.928 0 0 0-.285.081.518.518 0 0 0-.109.163c-.028.098-.05.197-.064.298l-.034.146-.776 17.532a.3.3 0 0 0 .295.317l.981.008c1.796.019 3.598.019 5.487.007 1.707-.01 3.651-.12 5.27-.869a9.227 9.227 0 0 0 4.005-3.662 10.559 10.559 0 0 0 1.396-4.482zm-5.021-.073a7.61 7.61 0 0 1-.622 2.293c-.963 2.065-2.821 2.324-4.738 2.45-.451 0-.915.094-1.367.089a.991.991 0 0 1-.293-.025 1.313 1.313 0 0 1-.238-.074 1.472 1.472 0 0 1-.172-.329c.094-2.054.424-7.419.554-8.552 0 0 .026-.179.04-.237.019-.108.05-.215.094-.317a.506.506 0 0 1 .133-.132c.091-.038.186-.065.283-.079.138-.029.521-.074.557-.08a7.968 7.968 0 0 1 3.371.212 3.92 3.92 0 0 1 1.927 1.724 4.98 4.98 0 0 1 .471 3.057z"/></g><path d="M95.987 29.854s-13.667 17-31.333 25c-14.067 6.37-40 12-40 12s22.333 2.667 38.333-3c22.456-7.954 33-34 33-34z" fill="#8e91a2" opacity=".4"/></svg></g><g transform="translate(1560.0 1042.5) rotate(0.0 30.0 69.375) scale(3.858769052672198 3.7561926419231706)"><svg width="15.549" height="36.939" viewBox="0 0 15.549 36.939"><g fill="#93c3ff"><path d="M14.218 16.774a6.607 6.607 0 0 0-6.871-6.601c-3.379.132-6.146 2.853-6.331 6.229a6.608 6.608 0 0 0 4.405 6.604v11.099c0 .105.033.207.094.291l1.695 2.338a.497.497 0 0 0 .804 0l1.695-2.338a.5.5 0 0 0 .094-.291v-.871c0-.132.052-.258.145-.351l.716-.716a.496.496 0 0 0 0-.702l-.861-.861v-.059l.861-.861a.496.496 0 0 0 0-.702l-.861-.862v-.059l.861-.861a.496.496 0 0 0 0-.702l-.716-.716a.496.496 0 0 1-.145-.351v-2.425a6.607 6.607 0 0 0 4.415-6.232z"/><path d="M7.775 15.549C3.488 15.549 0 12.061 0 7.775S3.488 0 7.775 0s7.775 3.488 7.775 7.775-3.488 7.774-7.775 7.774zM7.775 1C4.039 1 1 4.039 1 7.775s3.039 6.775 6.775 6.775 6.775-3.039 6.775-6.775S11.51 1 7.775 1z"/></g></svg></g><g transform="translate(705.0 705.0) rotate(0.0 448.125 669.375) scale(3.7533450313459276 3.7395251396648046)"><svg width="238.787" height="358" viewBox="0 0 238.787 358"><path d="M234.432 98.3c-.02-.055-.044-.292-.044-.292s-.558-2.995-.569-2.988a96.634 96.634 0 0 0-.312-1.504 2.811 2.811 0 0 0-.335-.927 91.157 91.157 0 0 0-2.018-3.71c-.439-.704-.949-1.261-1.602-1.703-.964-.843-4.855-3.699-4.855-3.699l-4.516 4.132 3.947 1.279-1.623 5.581s-.551.692-1.545 2.038c-.993 1.346-.013 3.889 1.025 2.836l1.738-1.676-.025-.012c.1-.104.452-.469.65-.645a2.96 2.96 0 0 0 .532-.747c.236-.504.674-1.313 1.081-2.073l.016 1.183s-.324.98-.997 2.704c-.672 1.723 1.185 4.134 1.976 2.739l1.209-2.286c.175-.372.334-.614.542-1.059.194-.316.314-.669.379-1 .137-.636.346-1.733.535-2.729l.559.977.619 2.058c.178.49.41.962.786 1.319 1.146 1.127 2.776 1.031 2.847.204z" fill="#c78982"/><path d="M234.432 98.3c-.02-.055-.044-.292-.044-.292s-.558-2.995-.569-2.988a96.634 96.634 0 0 0-.312-1.504 2.811 2.811 0 0 0-.335-.927 91.157 91.157 0 0 0-2.018-3.71c-.439-.704-.949-1.261-1.602-1.703-.964-.843-4.855-3.699-4.855-3.699l-4.516 4.132 3.947 1.279-1.623 5.581s-.551.692-1.545 2.038c-.993 1.346-.013 3.889 1.025 2.836l1.738-1.676-.025-.012c.1-.104.452-.469.65-.645a2.96 2.96 0 0 0 .532-.747c.236-.504.674-1.313 1.081-2.073l.016 1.183s-.324.98-.997 2.704c-.672 1.723 1.185 4.134 1.976 2.739l1.209-2.286c.175-.372.334-.614.542-1.059.194-.316.314-.669.379-1 .137-.636.346-1.733.535-2.729l.559.977.619 2.058c.178.49.41.962.786 1.319 1.146 1.127 2.776 1.031 2.847.204z" fill="#1d2445" opacity=".1"/><path d="M225.853 93.978s3.756-.185 7.254-.401 2.757-3.463.052-3.78l-7.212-.848z" fill="#c78982"/><path d="m238.775 92.23-.019-.055-.02-.055-.02-.028-1.139-2.327c-.385-.725-.695-1.414-.928-1.885-.173-.307-.326-.56-.607-.829a259.512 259.512 0 0 0-2.937-3.009c-.564-.537-1.216-.979-1.974-1.198l-9.006-2.914c-1.461-.459-3.12-.107-4.193 1.021l-5.89 5.889a8.47 8.47 0 0 1-5.951 2.643l.098 9.918.469.085c-.329-.038-.522-.066-.522-.066 5.472.983 6.427.708 8.652.64l.91-.062c4.301-.133 5.851-5.706 10.158-6.015l.144-5.032-1.749-.231c-1.749-.231-2.635-2.686-1.551-2.585 1.085.102 8.109.771 8.109.771l2.918 2.954 1.146 1.805c.287.452.661.81 1.127 1.073 1.414.847 2.942.295 2.775-.508z" fill="#c78982"/><path d="m218.823 103.075-36.894 17.346a20.338 20.338 0 0 1-12.434 2.574l-4.014-.457a10.07 10.07 0 0 1-8.234-6.325l-6.046-15.396 26.984-4.277 33.849-9.855z" fill="#2888ff"/><path d="m155.648 112.066-15.626-39.53 22.776-7.113 13.744 38.912z" fill="#2888ff"/><path d="M56.362 258.188c-.996 2.027-23.944 82.647-23.944 82.647l-32.147-.351s16.398-75.383 17.839-79.29l8.665-28.043 37.354-7.843c0-.001-3.717 24.635-7.767 32.88zm12.111 15.159 3.789 63.191-.955 5.721 32.817 1.383.174-7.057.204-68.534.797-43.405-29.62-1.464s-5.803 37.273-7.067 46.506a18.648 18.648 0 0 0-.139 3.659z" fill="#013b84"/><path d="M71.86 348.911h16.226l.478 6.893H72.339z" fill="#002652"/><path d="m75.23 353.153 12.309.106 9.706 2.333h25.558c1.591 0 2.534-1.697 1.589-3.075l-1.782-2.757c-1.54-2.333-3.886-4.03-6.687-4.666l-17.756-3.712-26.28-2.757-1.254 9.438c-.239 2.651 1.946 5.09 4.597 5.09z" fill="#002652"/><path d="m99.64 336.61 6.841 6.892H93.225l-.69-6.892z" fill="#002652"/><path d="M105.816 343.078H95.742l10.69 2.757c2.703.742 5.369.955 7.998.636.947-.106.957-1.484-.012-1.697z" fill="#193b63"/><path d="m86.529 130.8 4.422 14.63-9.408 20.492-26.641 91.639s-32.056.976-31.972.41l17.497-115.743z" fill="#013b84"/><path d="M24.717 349.751v.004c-.029 0-.025-.004 0-.004z" fill="#29abe2"/><path d="m115.358 134.407 2.91 13.091c.324 1.459.385 2.964.18 4.445l-12.766 92.214c-.869 6.376-7.229 10.465-13.389 8.607-7.934-2.393-16.97-5.186-16.96-5.488l-2.084-109.224z" fill="#013b84"/><path d="M10.654 331.67h5.286c4.473 0 8.133 3.66 8.133 8.133v3.05H3.029v-3.558c0-4.169 3.355-7.625 7.625-7.625z" fill="#002652"/><path d="M2.826 358h21.552c3.152 0 3.558-5.591 1.525-10.776l-1.83-4.473H3.029l-1.83 4.473C-.733 352.409-.428 358 2.826 358z" fill="#002652"/><path d="M5.164 351.901h16.368c2.44 0 2.745-3.355 1.22-6.506l-1.322-2.745H5.367l-1.322 2.745c-1.626 3.151-1.321 6.506 1.119 6.506z" fill="#193b63"/><path d="m111.145 39.74 41.79 14.022a14.287 14.287 0 0 1 9.092 9.283l3.228 10.328-18.865 13.672-19.678 23.105-8.721 44.475-79.357-13.953 18.313-46.219L77.223 70.67l-9.087-11.631 31.759-18.191a13.803 13.803 0 0 1 11.25-1.108z" fill="#2888ff"/><path d="m134.212 24.65 19.025 9.1-18.607 38.905c-.839 1.755-3.426 1.443-3.824-.461l-6.102-27.822z" fill="#c78982"/><path d="m132.55 18.011 24.428-8.787A13.943 13.943 0 0 0 141.677.172l-6.644 1.052c-4.185.663-6.734 4.971-5.3 8.958z" fill="#002652"/><path d="m141.718 8.371 1.988 5.525 4.924-1.772 6.649 18.484 1.847-.664 4.016-17.061-7.838-9.006z" fill="#002652"/><path d="m154.256 11.945 7.735 21.118c.838 2.525-1.029 5.133-3.689 5.155l-24.67.205z" fill="#c78982"/><path d="m157.053 25.425 3.715-1.439c1.548-.599 1.641-2.754.15-3.485l-6.522-3.195zM137.019 3.213l-.487.162a3.92 3.92 0 0 0-2.488 4.956l4.286 12.925 17.235-5.715-1.201-3.62c-2.384-7.195-10.15-11.094-17.345-8.708z" fill="#c78982"/><path d="m143.985 16.655 10.806-3.584 4.556 13.736-10.806 3.584z" fill="#c78982"/><path d="m131.512 2.197-5.07 1.824c-5.541 1.993-8.416 8.099-6.423 13.64l9.02 25.079 32.244-11.599-6.463-17.968c-3.404-9.466-13.84-14.381-23.308-10.976z" fill="#c78982"/><path d="m155.666 15.719-2.454.882a1.146 1.146 0 0 0-.647.589l-.654 1.389c-.433.921.463 1.906 1.42 1.562l3.304-1.248m1.63 10.28 2.185-.26-.832-2.313-3.305.457c-.681.245.129.69.842 1.304 0 0 .207.207.402.372.236.204.398.476.708.44z" fill="#002652" opacity=".07"/><path d="m144.968.307 4.089 11.367a4.253 4.253 0 0 1-2.562 5.441l-4.034 1.451a4.108 4.108 0 0 0-2.475 5.257l3.409 9.478a3.701 3.701 0 0 1-5.058 4.601l-18.518-8.721a2.053 2.053 0 0 1-.983-2.734l5.894-16.396a13.572 13.572 0 0 1 11.498-8.921z" fill="#002652"/><path d="m132.347 1.887-11.343 4.081c-5.902 2.124-8.966 8.63-6.843 14.533l6.913 19.218a1.904 1.904 0 0 0 2.041 1.243l19.149-2.53a2.506 2.506 0 0 0 2.03-3.332z" fill="#002652"/><path d="m134.131 20.885.331-.119a4.889 4.889 0 0 1 6.255 2.946l3.188 8.865-4.492-.926a6.247 6.247 0 0 1-4.273-3.221l-2.265-4.327a2.293 2.293 0 0 1 1.256-3.218z" fill="#c78982"/><path d="M48.364 74.852a4.245 4.245 0 0 1 1.354-6.157l41.284-23.48c2.311-1.345 7.209-3.851 9.787-4.782 4.088-1.525 5.238 5.641 7.38 9.322l.951 1.633a7.832 7.832 0 0 1-2.832 10.709L58.626 89.21z" fill="#2888ff"/><path d="m14.591 131.21 21.092-49.336 61.985 26.5-21.091 49.335z" fill="#bedbff"/><g fill="#c78982"><path d="M51.47 151.413c-1.24-.125-2.293-.794-2.246-1.867l1.074-10.98 5.881-1.413-3.012 12.935a1.56 1.56 0 0 1-1.697 1.325z"/><path d="M48.319 149.243c-1.24-.125-3.106-1.084-3.058-2.158l1.164-10.77 5.881-1.413-3.164 13.632c-.061.3-.458.784-.807.712l-.016-.003z"/><path d="M44.414 147.775c-1.24-.125-3.086-1.179-3.038-2.252l1.144-10.674 5.881-1.413-3.164 13.632c-.061.3-.458.784-.807.712a.043.043 0 0 0-.016-.005z"/><path d="M40.895 145.966c-1.131-.044-2.42-.383-2.415-1.455l.117-11.573 5.407-1.521-2.386 13.79c-.044.303-.388.811-.708.762l-.015-.003z"/><path d="m42.725 137.761 9.177 2.134a3.406 3.406 0 0 0 4.177-3.235l.248-10.107a1.415 1.415 0 0 0-1.086-1.411l-5.315-1.263c-4.894-1.163-9.849 1.889-11.012 6.782l-.157.658c-.679 2.864 1.106 5.762 3.968 6.442z"/><ellipse cx="48.451" cy="135.866" rx="8.521" ry="7.793" transform="matrix(.2312 -.9729 .9729 .2312 -94.9361 151.59)"/><path d="M60.608 140.457a9.12 9.12 0 0 1 .229-2.558 7.81 7.81 0 0 0-.171-4.128l-1.285-3.654c-.736-2.077-1.277-3.64-4.031-5.03l-3.916-3.646-6.935 2.119a1.728 1.728 0 0 0-1.041 2.423l.397.798a8.325 8.325 0 0 1 3.326 6.521l-.004.066v.073l6.729 13.488.783-5.288.75-1.715a.554.554 0 0 1 .552-.321.58.58 0 0 1 .448.314c.022.044.342.68.356.728-.248 1.66 3.917 2.248 3.813-.19z"/><path d="m59.414 140.777-3.697 2.135a2.648 2.648 0 0 0-1.12 3.312l.113.271a.756.756 0 0 0 .989.407l4.024-1.678a1.425 1.425 0 0 0 .767-1.864z"/><path d="m60.931 143.4.033-8.109a2.393 2.393 0 0 0-2.586-2.395l-1.678.136-.002 12.251h2.341a1.89 1.89 0 0 0 1.892-1.883z"/></g><path d="m38.617 128.192 5.89-50.816c.83-6.884 7.084-11.792 13.968-10.96l1.876 2.226a7.832 7.832 0 0 1 6.838 8.713l-6.455 53.505z" fill="#2888ff"/><path d="M75.047 81.781 99.07 68.328c1.333-.747 2.977.217 2.977 1.745v13.868z" fill="#1d2445" opacity=".07"/></svg></g><g transform="translate(1631.25 701.25) rotate(0.0 508.125 676.875) scale(3.7128441573624835 3.724096382227773)"><svg width="273.712" height="363.511" viewBox="0 0 273.712 363.511"><path d="M212.024 82.134c3.34-7.974-.455-17.158-8.422-20.399L173.758 49.33c-6.233-2.563-13.386.401-15.949 6.634l-.678 1.735c-1.627 3.885.261 8.328 4.145 9.955l48.541 20.092z" fill="#016eea"/><path d="m110.531 160.49-36.084 95.662a14.818 14.818 0 0 0 1.586 13.482l42.329 63.246 9.02-11.4 2.578-9.022L114 268.047c-.297-.991-.793-1.884-1.289-2.776l-6.344-11.301 45.501-62.156-4.56-39.95z" fill="#013b84"/><path d="m164.99 136.708 2.278 3.503c4.112 6.788 5.449 14.909 3.485 22.647l-1.215 4.771-1.375 79.485s-25.192-2.49-25.284-2.977L129.5 143.233z" fill="#013b84"/><path d="m172.331 276.507-6.343 32.939-2.115 11.246-1.145 6.133-.373 1.844-1.082 5.826-.547 2.864-.858 4.4-.074.209s-2.964.264-6.432.49c-1.488.083-3.161.288-4.649.371-.886.109-1.685.107-2.374.192-1.882.131-3.259.3-3.357.312l.038-.504.016-1.5.125-12 .042-13.488.603-45.518-1.377-33.989 24.916-2.061 5.036 36.136c.352 2.053.298 4.057-.05 6.098z" fill="#013b84"/><path d="m115.55 174.093 11.649-1.425c3.593-.426 6.887 2.148 7.401 5.726l3.996 32.224z" fill="#1d2445" opacity=".15"/><path d="m136.904 358.356 22.503-.099 1.388-3.668c1.09-2.974 1.289-6.146.793-9.318l-.694-4.164-9.715-5.452-9.715 5.551-4.857 7.732a6.457 6.457 0 0 0-1.09 4.064l.099 3.965c-.1.794.594 1.389 1.288 1.389z" fill="#93c3ff"/><path d="m139.481 363.511 16.456-.099c.892 0 1.784-.496 2.082-1.289l1.685-4.164-23.891.099 1.685 4.164c.199.793 1.091 1.289 1.983 1.289z" fill="#2888ff"/><path d="M147.61 333.672h9.913c.991 0 1.685.793 1.487 1.883l-1.884 9.616c-.198.991-1.19 1.884-2.181 1.884h-9.913c-.991 0-1.685-.793-1.487-1.884l1.884-9.616c.198-.991 1.189-1.883 2.181-1.883z" fill="#93c3ff"/><path d="M149.394 355.283h-3.37c-1.388 0-2.577 1.19-2.577 2.577 0 1.388 1.19 2.577 2.577 2.577h3.37c1.388 0 2.577-1.19 2.577-2.577.001-1.487-1.189-2.577-2.577-2.577z" fill="#2888ff"/><path d="M70.719 112.493c6.702 5.461 16.585 4.422 21.949-2.302l20.347-25.11c4.222-5.252 3.406-12.952-1.846-17.174l-1.471-1.142c-3.265-2.661-8.565-1.543-11.226 1.722l-32.511 40.3z" fill="#016eea"/><path d="m35.15 114.046 43.932 2.275c6.372.46 11.787-4.636 11.757-11.086l-13.046-8.687-16.833.413-26.346 3.265z" fill="#016eea"/><g fill="#b18278"><path d="M.023 110.892a2.443 2.443 0 0 0 2.623 1.402l18.128-3.482 1.542-5.887-21.839 7.189a.63.63 0 0 0-.459.763v.001zm6.58 1.294a2.444 2.444 0 0 0 2.326 1.854l18.459-.138 2.583-5.511-22.779 3.112a.63.63 0 0 0-.59.667z"/><path d="M10.425 114.927a2.445 2.445 0 0 0 2.395 1.763l18.438-.849 2.37-5.606-22.643 3.986a.63.63 0 0 0-.564.69v.004z"/><path d="M15.805 117.176a2.445 2.445 0 0 0 2.395 1.764l17.194-.793a1.984 1.984 0 0 0 1.731-1.205l1.884-4.461-22.642 3.991a.63.63 0 0 0-.564.69v.004z"/><path d="m41.621 103.787.463 1.355c1.854 5.425-1.042 11.326-6.467 13.18l-.003.001-.727.248a6.072 6.072 0 0 1-7.708-3.78l-1.857-5.435a6.072 6.072 0 0 1 3.783-7.709l4.808-1.643a6.072 6.072 0 0 1 7.708 3.783z"/><path d="m38.232 100.292-15.416 5.267 1.153-.463c.111-.045.218-.099.32-.162a1.741 1.741 0 0 0 .669-2.643l.088-.489c-.404-.664-1.176-.677-1.944-.81l-3.677-.62a5.214 5.214 0 0 1-2.531-1.149 4.884 4.884 0 0 1-.958-1.906 1.82 1.82 0 0 1-.091-.856c.008-.039.015-.077.026-.114a.892.892 0 0 1 1.115-.587l11.231 2.333 2.735-.047a10.545 10.545 0 0 1 4.85 1.062l2.269 1.113c.053.027.106.049.161.071z"/><path d="M31.563 116.479c-5.056 1.727-10.447-.663-12.045-5.339a9.013 9.013 0 0 1-.226-.783c-.039-.163-.262-.451-.099-.49a.365.365 0 0 0-.093-.723c-.149.017-.021-.297-.026-.448a8.873 8.873 0 0 1 1.238-4.738c.092-.157.117-.403.288-.462 2.859-.97 3.39-2.28 2.342-2.529-.245-.057.418-.231.634-.368a10.472 10.472 0 0 1 2.198-1.052c5.056-1.727 10.447.664 12.045 5.339 1.599 4.675-1.202 9.866-6.256 11.593z"/></g><path d="m104.47 65.27 59.933-15.982 21.989 17.125-7.455 48.841-.617 59.575-70.526-8.925-3-3.242a8.314 8.314 0 0 1-2.141-6.726l4.452-34.04-6.387-51.057a5.11 5.11 0 0 1 3.752-5.569z" fill="#016eea"/><path d="m128.947 332.826-4.494 10.424-8.135 4.612-20.439.227-.205-.084-2.398-1.513-1.358-.894c-1.146-.711-1.735-1.959-1.83-3.245.026-.996.363-1.816.905-2.552.549-.637 1.403-1.197 2.391-1.27l8.458-1.22c2.655-.395 5.167-1.375 7.445-2.835 2.179-1.453 4.131-3.287 5.552-5.579 0 0 7.913-1.876 7.576-1.056l-1.11 2.468 4.715 1.938c.822.337 1.832.56 2.927.579z" fill="#93c3ff"/><path d="m141.758 327.13-12.094 9.913-15.365 12.59c-.892 0-1.685-.099-2.379-.099-1.883-.099-3.271-.099-3.37-.099l.099-.496.198-1.487 1.586-11.896.942-7.114-1.14-6.368.595-.099c.892-.099 2.776.496 3.073 1.388l1.586 2.577 4.857-1.388c3.271-.991 5.75-3.668 6.344-7.138l.892-5.254c.198-.892 1.289-1.289 1.884-.496l5.948 6.741 4.164 4.758.397.397z" fill="#93c3ff"/><path d="m139.378 333.574-11.598 9.219-9.881 7.343a1.97 1.97 0 0 1-1.977.219l-1.624-.722s-1.685-.099-2.379-.099l12.788-10.211c.397-.297.595-.694.694-1.19.198-1.19.496-2.379 1.09-3.37.595-.991 1.388-1.983 2.28-2.677l3.271-2.577 7.732-6.146.198-.198c.595-.496 1.586-.198 1.784.595l.397 1.685c.794 2.974-.296 6.146-2.775 8.129z" fill="#2888ff"/><path d="m122.185 346.042-4.918 4.57-16.199.075c-.593.044-1.307-.202-1.823-.462l-6.818-4.129 26.784-.055h2.974z" fill="#2888ff"/><path d="m130.143 72.088 30.691-21.729-22.84-1.427-20.699 12.847z" fill="#93c3ff"/><path d="M143.594 18.736c.523-5.863-6.596-11.308-15.914-12.145-7.957-.733-14.972 2.094-17.276 6.491-.628 1.152.209 2.513 1.466 2.618z" fill="#1d2445"/><path d="M143.071 10.465C143.49 5.544 137.417.833 129.46.1c-6.806-.628-12.773 1.78-14.658 5.549-.524.942.209 2.199 1.256 2.303z" fill="#1d2445"/><path d="m120.351 20.202-2.199 21.882c-.209 2.618 2.199 4.607 4.712 3.979l23.348-6.759z" fill="#c78982"/><path d="M120.874 33.708 117 33.289c-1.571-.209-2.199-2.199-.942-3.246l5.444-4.607zM134.38 7.847h.524c2.094.105 3.665 1.989 3.56 4.083l-.942 13.297-17.694-1.256.209-3.769c.523-7.329 7.014-12.878 14.343-12.355zm16.174 22.617-20.73-.444-.814 40.941c0 1.036 1.185 1.481 1.851.814l19.175-18.435z" fill="#c78982"/><path d="m119.04 35.507.97-14.102 11.073.76-.969 14.102z" fill="#c78982"/><path d="m139.406 5.544 5.235.524c5.759.524 9.947 5.654 9.423 11.308l-2.408 25.966-33.295-3.142 1.78-18.532c.733-9.947 9.423-17.066 19.265-16.124z" fill="#c78982"/><path d="m129.597 44.124 2.53-1.004c1.115-.356 2.136.842 1.458 1.796l-4.155 6.388zm-9.665-19.839 2.513.209c.314 0 .524.209.733.419l.942 1.152c.628.733 0 1.885-.942 1.78l-3.665-.314" fill="#1d2445" opacity=".1"/><path d="m133.333 29.416-.419 3.979c-.314 3.665-2.827 6.701-6.282 7.853.314-2.827-1.78-5.34-4.712-5.654l-3.126-.314-.27 2.25 1.821 1.979-2.18 1.023-.224 1.868c-.209 2.618 2.199 4.607 4.712 3.874l9.947-2.827c1.466-.419 2.513-1.675 2.722-3.246l1.256-13.506c-1.569-.211-3.035 1.045-3.245 2.721z" fill="#1d2445"/><path d="m122.026 41.456-2.618.314c-.733.105-1.256-.524-1.256-1.152l.368-3.091 2.354.264c1.361.105 2.303 1.256 2.199 2.618a1.346 1.346 0 0 1-1.047 1.047z" fill="#c78982"/><path d="m148.934 40.514-8.585 2.932 3.246-34.865c.209-2.094 1.989-3.56 4.083-3.35l1.675.105c7.957.733 13.402 8.376 11.412 16.124l-2.094 8.585c-1.361 4.815-4.921 8.794-9.737 10.469z" fill="#1d2445"/><path d="m139.092 25.646-16.438-1.57-.105-2.722 16.752 1.57z" fill="#016eea"/><path d="M151.133 10.151 138.15 8.999l-2.513 26.803c-.419 4.083 2.618 7.748 6.701 8.062l5.549.524z" fill="#1d2445"/><path d="m142.861 6.905-15.286-1.466-.838 8.69c-.419 4.083 2.618 7.748 6.701 8.062l7.853.838z" fill="#1d2445"/><path d="M122.235 22.401s.105 0 0 0l-.419 5.444s0 .105-.105.105l-3.56-.314s-.105 0-.105-.105l.524-5.34s0-.105.105-.105zm.105-1.047-3.56-.314c-.628-.105-1.152.419-1.256 1.047L117 27.426c-.105.628.419 1.152 1.047 1.256l3.56.314c.628.105 1.152-.419 1.256-1.047l.523-5.34c.001-.627-.418-1.255-1.046-1.255z" fill="#016eea"/><path d="M147.154 28.054c.523-5.863 8.585-9.842 17.904-9.004 7.957.733 14.344 4.816 15.705 9.632.314 1.256-.733 2.408-1.989 2.303z" fill="#1d2445"/><path d="M140.139 34.86c.523-5.444 7.957-9.109 16.647-8.376 7.434.733 13.402 4.502 14.658 8.9.314 1.152-.628 2.303-1.885 2.199z" fill="#1d2445"/><path d="M143.803 39.781c-4.502-.419-5.34-6.596-1.047-8.271 2.303-.838 5.026-1.256 7.957-1.047 6.491.628 11.517 4.293 12.564 8.795.314 1.152-.628 2.303-1.675 2.199z" fill="#1d2445"/><path d="M141.081 43.864c-3.35-.314-3.979-4.921-.838-6.073 1.675-.628 3.665-.942 5.863-.733 4.712.419 8.481 3.141 9.318 6.491.209.838-.419 1.675-1.152 1.571zm2.513-25.861c.523-5.863 8.585-9.842 17.904-9.004 7.957.733 14.344 4.816 15.705 9.632.314 1.256-.733 2.408-1.989 2.303z" fill="#1d2445"/><path d="M129.878 9.627c.524-5.863 8.585-9.842 17.904-9.004 7.957.733 14.344 4.816 15.705 9.632.314 1.256-.733 2.408-1.989 2.303z" fill="#1d2445"/><path d="m107.242 169.255.441-3.976 60.739 6.747-.442 3.975z" fill="#93c3ff"/><path d="m217.375 334.295-13.72 7.957-47.379-81.689a6.27 6.27 0 0 1 2.627-8.756l20.893-10.408 12.73 15.501c4.438 5.011 8.59 11.026 10.183 17.527z" fill="#99644c"/><path d="M180.366 353.25h29.907v6.777h-29.907z" fill="#2888ff"/><path d="M180.366 355.069v-1.887a7.146 7.146 0 0 1 5.714-7.001l10.461-2.14 4.745-5.849h3.99c.938 0 1.872-.128 2.776-.38l4.815-1.341 5.515-3.309 6.834 10.51-15.991 11.284z" fill="#7eb8ff"/><path d="m245.09 253.024-27.268 1.595a53.294 53.294 0 0 1-11.396-27.911l-7.058-69.739 11.55.519c24.517 3.518 42.818 22.872 40.115 47.493z" fill="#016eea"/><path d="m177.152 259.243-14.776 6.851-7.276-8.362a16.87 16.87 0 0 1-3.6-15.319l19.281-74.175 45.397 15.832-17.509 48.325a53.025 53.025 0 0 1-19.209 25.212z" fill="#016eea"/><path d="M228.037 350.939h-15.861V249.825l31.226-13.383 2.965 25.684a69.68 69.68 0 0 1-1.806 25.616z" fill="#99644c"/><path d="M200.164 356.735v-3.484h29.01c.496 0 .897.401.897.897v5.88h-.29c-.963 0-1.742.78-1.742 1.742 0 .963-.78 1.742-1.742 1.742h-27.849v-5.66c0-.618.501-1.118 1.118-1.118h.598z" fill="#3d94ff"/><path d="M220.285 343.669h-4.205a8.414 8.414 0 0 0-5.512 2.059l-2.062 1.79a5.354 5.354 0 0 1-2.493 1.214l-2.524.489a6.256 6.256 0 0 0-5.068 6.142v2.533h27.465c.715 0 1.302-.565 1.328-1.28a2.742 2.742 0 0 1 2.74-2.64h.116l-.819-7.695-3.065-1.254a13.502 13.502 0 0 0-5.901-1.358z" fill="#93c3ff"/><path d="m251.079 200.704-93.462 19.712 10.226-47.686 83.236-.991zm-8.772 24.818-30.406-8.273v86.404l34.93 4.596v-43.202z" fill="#016eea"/><path d="m236.527 68.016-44.08 1.53a14.867 14.867 0 0 0-10.363 7.769l-4.957 15.351h72.209c4.98 0 8.324-5.109 6.331-9.673l-2.084-4.771c-2.246-7.261-9.599-11.661-17.056-10.206z" fill="#93c3ff"/><path d="m185.798 77.257-12.773 17.147c-4.828 5.426-6.074 12.638-2.341 18.613l3.039 3.278v8.845l-7.325 48.703 84.682 9.338v-25.509l-9.489-14.958a8.542 8.542 0 0 1-1.038-6.788l8.205-30.615 4.825-27.092z" fill="#93c3ff"/><path d="M214.659 29.282c.705-6.011-6.555-11.804-16.216-12.938-8.242-.967-15.569 1.77-17.981 6.325-.626 1.18.172 2.619 1.498 2.776z" fill="#002652"/><path d="M214.334 20.626c.6-5.118-5.581-10.049-13.805-11.015-7.017-.824-13.255 1.506-15.308 5.385-.531 1.004.147 2.23 1.275 2.362z" fill="#002652"/><path d="m208.165 15.895.522.061a3.843 3.843 0 0 1 3.37 4.267l-1.553 13.239-17.706-2.078.433-3.693c.868-7.38 7.553-12.662 14.934-11.796zM204.59 70.71l2.372-.051a21.908 21.908 0 0 0 8.213-1.785l7.028-3.03a3.085 3.085 0 0 0 1.863-2.824l.048-18.211-14.903.819-7.674-.025-.095 22.011a3.081 3.081 0 0 0 3.148 3.096z" fill="#99644c"/><path d="m196.166 40.618 1.655-14.11 11.1 1.303-1.655 14.11z" fill="#99644c"/><path d="m193.667 26.931-.79 6.73c-.029.245-.01.493.055.73l.632 2.323a1.924 1.924 0 0 1-.745 2.077l-.591.418-1.528 13.017a3.85 3.85 0 0 0 3.39 4.275l24.166 2.736.866-8.239z" fill="#99644c"/><path d="m194.675 47.361-4.965-3.365a1.925 1.925 0 0 1-.01-3.181l6.245-4.288z" fill="#99644c"/><path d="m201.603 56.476 2.682-.3a1.029 1.029 0 0 1 1.053 1.442l-3.719 8.295" fill="#002652" opacity=".1"/><path d="m208.818 48.834.993-8.46 5.557.651-.993 8.461z" fill="#99644c"/><path d="m193.444 34.201 3.383.398c.304.036.582.19.772.431l.962 1.218c.638.807-.019 1.983-1.041 1.863l-3.935-.461m1.172 9.432-.536.802a1.918 1.918 0 0 1-1.275.827l-1.788.305.278-2.369z" fill="#002652" opacity=".1"/><path d="m213.353 36.497-16.952-1.988-.053-2.849 17.334 2.033z" fill="#93c3ff"/><path d="m201.411 24.668 11.366 1.333-.684 5.829c1.799.358 3.525.671 3.791.615.405-.084-4.234 3.98-7.136 6.496-.797.691-2.022.037-1.899-1.011l.437-3.728a1.156 1.156 0 0 0-1.012-1.282l-1.767-.207a4.014 4.014 0 0 1-3.519-4.453z" fill="#002652"/><path d="m233.46 25.528-16.704-10.284-7.986 5.63-3.028 25.81a7.701 7.701 0 0 0 6.751 8.545l5.735.673z" fill="#002652"/><path d="m214.174 17.014-15.757-1.85-1.055 8.984a7.701 7.701 0 0 0 6.751 8.545l8.109.952z" fill="#002652"/><path d="M196.07 32.669c.03.015.078.057.069.129l-.651 5.554a.118.118 0 0 1-.048.084.117.117 0 0 1-.093.026l-3.749-.447a.125.125 0 0 1-.069-.129l.651-5.554a.118.118 0 0 1 .048-.084.117.117 0 0 1 .093-.026l3.708.435a.109.109 0 0 1 .041.012m.455-.922a1.153 1.153 0 0 0-.377-.111l-3.708-.435a1.156 1.156 0 0 0-1.282 1.012l-.651 5.554a1.158 1.158 0 0 0 1.013 1.282l3.708.435a1.156 1.156 0 0 0 1.282-1.012l.651-5.554a1.15 1.15 0 0 0-.636-1.171z" fill="#93c3ff"/><path d="M218.173 38.997c.705-6.011 9.109-9.966 18.771-8.833 8.242.968 14.736 5.324 16.028 10.317.334 1.293-.773 2.508-2.1 2.352z" fill="#002652"/><path d="M210.774 45.882c.656-5.589 8.469-9.265 17.451-8.211 7.663.899 13.701 4.951 14.902 9.592.31 1.201-.719 2.332-1.952 2.187z" fill="#002652"/><path d="M214.452 50.965c-4.662-.547-5.356-6.994-.934-8.565 2.409-.855 5.245-1.189 8.219-.84 6.662.781 11.86 4.735 12.837 9.349.253 1.196-.661 2.339-1.734 2.214z" fill="#002652"/><path d="M211.536 55.112c-3.435-.402-3.946-5.153-.687-6.31 1.774-.63 3.864-.875 6.055-.619 4.908.576 8.737 3.487 9.457 6.888.186.88-.488 1.723-1.277 1.631zm3.214-26.595c.706-6.01 9.109-9.965 18.77-8.832 8.242.967 14.736 5.324 16.029 10.317.334 1.293-.773 2.508-2.1 2.352z" fill="#002652"/><path d="M200.689 19.502c.706-6.011 9.11-9.966 18.771-8.833 8.242.967 14.737 5.324 16.029 10.317.334 1.293-.773 2.508-2.1 2.352z" fill="#002652"/><path d="m258.672 124.098-8.715 15.499a37.13 37.13 0 0 0-3.614 9.025l-7.28 28.564 10.846 9.466 16.67-30.226a37.096 37.096 0 0 0 4.317-13.348l.837-6.79a10.058 10.058 0 0 0-7.852-11.061z" fill="#99644c"/><path d="m245.53 199.955 7.924-21.426-6.946-1.217-.391-.157a9.583 9.583 0 0 0-4.1-.573c-1.38.1-2.73.5-3.963 1.188l-.005-.018-12.964 6.925a.699.699 0 0 0-.349.892 1.35 1.35 0 0 0 1.723.824l6.468-1.745c.257-.064.53-.064.793.007a1.513 1.513 0 0 1 1.048 1.857l-2.248 10.435 3.771.095.911-1.335a11.07 11.07 0 0 1 1.542-1.8c.003-.001 4.214 6.036 6.786 6.048z" fill="#99644c"/><path d="M231.335 207.725c-.735-.324-1.179-1.224-1.012-2.198l3.7-14.557 5.003-.367-7.036 16.789a.512.512 0 0 1-.655.333zm2.678-.469c-.666-.451-.943-1.414-.604-2.343l6.562-14.334 4.951-.09-10.205 16.556a.513.513 0 0 1-.704.211z" fill="#99644c"/><path d="M239.611 205.861c-.749-.291-1.232-1.17-1.109-2.151l3.046-14.707 4.809-1.186-6.106 17.683a.513.513 0 0 1-.626.365l-.014-.004z" fill="#99644c"/><path d="M245.864 202.03c-.782-.182-1.386-.983-1.404-1.971l.928-14.99 4.591-1.856-3.535 18.37a.512.512 0 0 1-.58.447z" fill="#99644c"/><path d="m253.006 134.438 18.527 3.444c1.849-.66 2.609-2.738 1.939-4.584l-17.447-49.511-23.16 10.675z" fill="#93c3ff"/><path d="m249.393 198.494-18.963-12.509-16.071 25.636 18.964 12.509zm-66.696 45.067 14.576 18.074a21.286 21.286 0 0 1 3.93 7.632l3.283 11.751-32.957 24.472-18.945-53.117z" fill="#016eea"/><path d="m205.197 215.121-2.223-21.754a15.19 15.19 0 0 0-9.668-12.638l-7.827-3.006z" fill="#1d2445" opacity=".07"/><path d="M227.6 79.371h-27.251V61.148a2 2 0 0 1 2-2H225.6a2 2 0 0 1 2 2z" fill="#93c3ff"/><path d="M228.572 100.931c1.018-.072 1.928-.851 2.162-2.054l2.466-18.649-5.193-3.407.014 23.416c-.036.311.239.658.551.694z" fill="#c78982"/><path d="M231.165 98.421c1.024.15 2.024-.587 2.437-1.707l5.233-18.015-4.636-4.132-3.544 23.069c-.035.312.109.708.51.785z" fill="#c78982"/><path d="M233.704 95.559c.982.239 2.12-.324 2.665-1.491l7.203-17.314-4.204-4.587-6.173 22.608c-.036.311.108.706.509.784z" fill="#c78982"/><path d="M236.74 91.396c.94.329 1.988-.276 2.581-1.312l5.694-12.439c1.257-2.695.904-5.923-.935-8.312l-.737-1-6.939 22.141c-.077.401.066.796.336.922z" fill="#c78982"/><path d="m244.745 75.879-8.785 1.48c-3.336-.353-5.815-3.479-5.462-6.815l.527-5.114c.015-.139.037-.284.066-.435 1.19-6.119 9.638-7.064 12.454-1.503l1.242 2.452c.611 1.27.958 2.635.953 4.054l-.048 4.791c.06.574-.372 1.03-.947 1.09z" fill="#c78982"/><path d="m232.695 61.614-1.771 16.457.054-1.288c.042-.09-.006-.222-.054-.353-.168-1.282-1.3-2.138-2.539-2.06-.796.066-1.539.485-1.964 1.162l-2.132 3.162c-.599.815-1.335 1.455-2.168 1.833-.569.282-1.276.389-1.809.359-.311-.036-.581-.162-.85-.287l-.09-.042c-.365-.389-.425-.964-.078-1.24l6.976-9.325 1.174-2.515c.713-1.527 1.695-2.929 3.084-4.031l1.952-1.605c.173-.137.173-.137.215-.227z" fill="#c78982"/><path d="M245.332 74.621c-.479 5.246-4.856 9.002-9.839 8.427s-7.558-2.323-8.05-10.647c-.366-5.312 4.856-9.002 9.839-8.427s8.571 5.311 8.05 10.647z" fill="#c78982"/></svg></g></svg>